<?xml version="1.0" standalone="no"?>
<!DOCTYPE svg PUBLIC "-//W3C//DTD SVG 20010904//EN"
 "http://www.w3.org/TR/2001/REC-SVG-20010904/DTD/svg10.dtd">
<svg version="1.0" xmlns="http://www.w3.org/2000/svg"
 width="260.000000pt" height="260.000000pt" viewBox="0 0 260.000000 260.000000"
 preserveAspectRatio="xMidYMid meet">
<metadata>
Created by potrace 1.14, written by Peter Selinger 2001-2017
</metadata>
<g transform="translate(0.000000,260.000000) scale(0.100000,-0.100000)"
fill="#000000" stroke="none">
<path d="M1509 1791 c-1 -14 -2 -55 -3 -91 l-1 -65 -203 0 -203 0 -89 89 c-81
81 -92 88 -119 83 -23 -5 -105 -82 -328 -307 -163 -166 -301 -306 -305 -313
-14 -22 -8 -57 12 -77 45 -45 55 -38 350 260 l277 280 164 -172 c90 -95 212
-222 271 -282 l106 -111 413 0 c444 0 461 2 473 51 9 34 -6 60 -94 155 -14 15
-85 97 -159 182 -78 91 -142 157 -155 159 -11 2 -67 3 -123 3 -64 0 -103 3
-104 10 -1 5 -1 45 -1 88 0 42 -3 78 -6 78 -4 1 -44 2 -89 3 -83 2 -83 2 -84
-23z"/>
<path d="M713 1255 c-1 -41 2 -76 5 -76 19 -3 128 -5 137 -2 6 2 10 35 9 76
l-1 72 -74 3 -74 3 -2 -76z"/>
<path d="M938 1323 c-4 -7 -3 -111 1 -138 0 -6 31 -10 73 -10 l73 0 0 75 0 75
-72 3 c-39 2 -73 -1 -75 -5z"/>
<path d="M714 1045 c0 -41 2 -75 6 -76 26 -4 140 -3 141 1 0 3 1 37 2 75 l2
70 -76 3 -75 3 0 -76z"/>
<path d="M935 1045 c-1 -68 1 -75 20 -76 25 -1 118 -1 125 0 3 1 5 35 6 76 l0
75 -75 0 -76 0 0 -75z"/>
</g>
</svg>
